<?xml version="1.0" encoding="UTF-8"?>
<svg width="691.7" height="236.37" fill="none" version="1.1" viewBox="0 0 691.7 236.37" xmlns="http://www.w3.org/2000/svg">
 <defs>
  <linearGradient id="l" x1="406.61" x2="104.09" y1="68.312" y2="409.87" gradientTransform="matrix(.98374 0 0 1.0165 213.07 -166.77)" gradientUnits="userSpaceOnUse">
   <stop stop-color="#fff44f" stop-opacity=".8" offset=".17"/>
   <stop stop-color="#fff44f" stop-opacity="0" offset=".6"/>
  </linearGradient>
  <radialGradient id="k" cx="343.04" cy="132.01" r="528.89" gradientTransform="matrix(1.0573 0 0 .94584 213.07 -166.77)" gradientUnits="userSpaceOnUse">
   <stop stop-color="#fff44f" offset=".09"/>
   <stop stop-color="#ff980e" offset=".63"/>
  </radialGradient>
  <radialGradient id="j" cx="239.8" cy="99.006" r="461.11" gradientTransform="matrix(1.0089 0 0 .99118 213.07 -166.77)" gradientUnits="userSpaceOnUse">
   <stop stop-color="#fff44f" offset=".14"/>
   <stop stop-color="#ff980e" offset=".48"/>
   <stop stop-color="#ff3647" offset=".66"/>
   <stop stop-color="#e31587" offset=".9"/>
  </radialGradient>
  <radialGradient id="i" cx="475.59" cy="-41.588" r="779.91" gradientTransform="matrix(.68818 0 0 1.4531 213.07 -166.77)" gradientUnits="userSpaceOnUse">
   <stop stop-color="#fff44f" offset="0"/>
   <stop stop-color="#ff980e" offset=".3"/>
   <stop stop-color="#ff3647" offset=".57"/>
   <stop stop-color="#e31587" offset=".74"/>
  </radialGradient>
  <radialGradient id="h" cx="362.08" cy="-81.709" r="742.39" gradientTransform="matrix(1.0915 0 0 .91621 213.07 -166.77)" gradientUnits="userSpaceOnUse">
   <stop stop-color="#fff44f" offset=".11"/>
   <stop stop-color="#ff980e" offset=".46"/>
   <stop stop-color="#ff3647" offset=".72"/>
   <stop stop-color="#e31587" offset=".9"/>
  </radialGradient>
  <radialGradient id="g" cx="240.61" cy="36.807" r="170.02" gradientTransform="matrix(.99823 0 0 1.0018 213.07 -166.77)" gradientUnits="userSpaceOnUse">
   <stop stop-color="#ffe226" offset=".1"/>
   <stop stop-color="#ff7139" offset=".79"/>
  </radialGradient>
  <radialGradient id="f" cx="271.62" cy="200.9" r="131.86" gradientTransform="matrix(.9552 0 0 1.0469 213.07 -166.77)" gradientUnits="userSpaceOnUse">
   <stop stop-color="#9059ff" stop-opacity="0" offset=".21"/>
   <stop stop-color="#6e008b" stop-opacity=".6" offset=".97"/>
  </radialGradient>
  <radialGradient id="e" cx="206.27" cy="373.24" r="223.5" gradientTransform="matrix(.9552 0 0 1.0469 213.07 -166.77)" gradientUnits="userSpaceOnUse">
   <stop stop-color="#3a8ee6" offset=".35"/>
   <stop stop-color="#9059ff" offset=".67"/>
   <stop stop-color="#c139e6" offset="1"/>
  </radialGradient>
  <radialGradient id="d" cx="395.44" cy="-17.973" r="210.21" gradientTransform="matrix(.76747 0 0 1.303 213.07 -166.77)" gradientUnits="userSpaceOnUse">
   <stop stop-color="#fff44f" offset=".13"/>
   <stop stop-color="#ff980e" offset=".53"/>
  </radialGradient>
  <radialGradient id="c" cx="226.56" cy="290.18" r="554.15" gradientTransform="matrix(1.1087 0 0 .90193 213.07 -166.77)" gradientUnits="userSpaceOnUse">
   <stop stop-color="#960e18" offset=".3"/>
   <stop stop-color="#b11927" stop-opacity=".74" offset=".35"/>
   <stop stop-color="#db293d" stop-opacity=".34" offset=".43"/>
   <stop stop-color="#f5334b" stop-opacity=".09" offset=".5"/>
   <stop stop-color="#ff3750" stop-opacity="0" offset=".53"/>
  </radialGradient>
  <radialGradient id="b" cx="392.81" cy="61.16" r="554.15" gradientTransform="matrix(1.1087 0 0 .90193 213.07 -166.77)" gradientUnits="userSpaceOnUse">
   <stop stop-color="#ffbd4f" offset=".13"/>
   <stop stop-color="#ff980e" offset=".28"/>
   <stop stop-color="#ff3750" offset=".47"/>
   <stop stop-color="#eb0878" offset=".78"/>
   <stop stop-color="#e50080" offset=".86"/>
  </radialGradient>
  <linearGradient id="a" x1="441.98" x2="62.126" y1="75.631" y2="454.27" gradientTransform="matrix(.98374 0 0 1.0165 213.07 -166.77)" gradientUnits="userSpaceOnUse">
   <stop stop-color="#fff44f" offset=".05"/>
   <stop stop-color="#ff980e" offset=".37"/>
   <stop stop-color="#ff3647" offset=".53"/>
   <stop stop-color="#e31587" offset=".7"/>
  </linearGradient>
 </defs>
 <g fill="#20123a">
  <path d="m279.59 85.071h61.747v16.692h-44.032v22.633h44.032v16.564h-44.032v36.422h-17.715zm82.752-6.449c1.369-0.045 2.733 0.193 4.005 0.7 1.273 0.507 2.427 1.272 3.39 2.247 0.962 0.975 1.713 2.138 2.204 3.417s0.712 2.646 0.649 4.014c0.034 2.735-1.02 5.372-2.93 7.329-1.911 1.958-4.52 3.076-7.255 3.11s-5.371-1.02-7.329-2.93c-1.957-1.911-3.076-4.52-3.11-7.255-0.052-1.388 0.179-2.772 0.679-4.069 0.499-1.296 1.258-2.477 2.228-3.471 0.971-0.994 2.133-1.78 3.417-2.311 1.284-0.53 2.663-0.794 4.052-0.775zm-8.73 30.475h17.462v68.285h-17.462zm68.072 18.966c-2.42-1.909-5.39-2.976-8.47-3.036-7.09 0-11.14 4.552-11.14 14.541v37.814h-17.336v-68.28h16.576v9.862c1.23-3.269 3.49-6.055 6.43-7.946 2.94-1.89 6.41-2.784 9.89-2.55 4.15-0.01 8.2 1.223 11.64 3.54zm7.21 15.567c-0.13-4.689 0.68-9.356 2.39-13.723 1.72-4.367 4.29-8.345 7.57-11.696s7.21-6.007 11.54-7.81c4.33-1.802 8.98-2.715 13.67-2.682 20.49 0 35.05 14.541 35.05 34.772v7.207h-53.14c1.9 8.6 8.61 14.29 18.86 14.29 3.5 0.11 6.95-0.785 9.96-2.577 3-1.793 5.43-4.409 6.99-7.538l14.55 8.723c-7.2 10.623-17.46 16.184-32 16.184-22.15-0.017-35.44-14.8-35.44-35.159zm17.33-7.715h35.94c-1.89-8.723-8.98-13.529-18.22-13.529-4.06-0.146-8.05 1.122-11.28 3.588s-5.5 5.977-6.43 9.933zm57.19-26.81h12.28v-3.419c0-18.588 7.84-26.3 25.05-26.3h6.08v15.049h-4.93c-8.1 0-9.87 2.779-9.87 11.243v3.416h14.8v15.676h-14.41v52.612h-16.72v-52.603h-12.28zm46.71 34.139c-0.08-4.7 0.79-9.367 2.56-13.723 1.77-4.355 4.4-8.309 7.73-11.626 3.33-3.316 7.29-5.927 11.66-7.677 4.36-1.749 9.03-2.601 13.73-2.505 9.42 0 18.46 3.743 25.12 10.407 6.67 6.663 10.41 15.7 10.41 25.124 0 9.423-3.74 18.46-10.41 25.124-6.66 6.663-15.7 10.406-25.12 10.406-4.72 0.172-9.42-0.628-13.82-2.351s-8.4-4.331-11.74-7.664c-3.35-3.332-5.98-7.317-7.72-11.707s-2.56-9.091-2.41-13.811zm54.41 0c0.08-2.515-0.33-5.021-1.24-7.371-0.9-2.349-2.26-4.492-4.01-6.302s-3.84-3.25-6.16-4.233c-2.31-0.983-4.8-1.49-7.32-1.49s-5.01 0.507-7.32 1.49c-2.32 0.983-4.41 2.423-6.16 4.233s-3.11 3.953-4.02 6.302c-0.9 2.35-1.32 4.856-1.23 7.371-0.09 2.514 0.33 5.021 1.23 7.37 0.91 2.349 2.27 4.492 4.02 6.302 1.75 1.811 3.84 3.25 6.16 4.233 2.31 0.984 4.8 1.49 7.32 1.49s5.01-0.506 7.32-1.49c2.32-0.983 4.41-2.422 6.16-4.233 1.75-1.81 3.11-3.953 4.01-6.302 0.91-2.349 1.32-4.856 1.24-7.37zm40.49-0.759-24.68-33.383h20.49l14.56 20.99 14.93-20.99h20.11l-25.05 33.254 26.32 35.026h-20.37l-16.33-22.255-15.81 22.255h-20.37z"/>
  <path d="m289.6 231.85c-2.854 0-4.744-1.372-5.782-4.114h-1.001v3.743h-3.187v-25.573h3.78v4.596c0 1.149-0.111 2.335-0.37 4.67h1c0.964-2.595 2.78-3.855 5.56-3.855 4.781 0 7.672 3.743 7.672 10.266s-2.928 10.267-7.672 10.267zm-6.19-9.155c0 4.188 1.557 6.078 4.93 6.078 3.372 0 4.929-1.89 4.929-6.078v-2.224c0-4.188-1.557-6.078-4.929-6.078-3.373 0-4.93 1.89-4.93 6.078zm19.717 13.676 2.335-5.522-7.487-19.161h3.892l5.04 13.416h1.001l5.078-13.416h3.706l-9.674 24.683z"/>
  <path d="m341.19 204.63 3.452 16.985h1.237l3.452-16.985h10.081v26.752h-5.502v-22.062h-1.237l-4.8 22.062h-5.207l-4.8-22.062h-1.237v22.062h-5.52v-26.752zm31.588 5.668c6.351 0 10.044 3.803 10.044 10.745s-3.674 10.745-10.044 10.745c-6.369 0-10.043-3.803-10.043-10.745 0.018-6.96 3.692-10.745 10.043-10.745zm0 17.207c2.862 0 4.228-1.551 4.228-4.966v-3.028c0-3.416-1.348-4.967-4.228-4.967s-4.228 1.551-4.228 4.967v3.028c0.019 3.415 1.367 4.966 4.228 4.966zm12.296-0.111 10.508-12.72h-10.36v-3.988h16.91v3.988l-10.5 12.72h10.65v3.988h-17.208zm20.088-16.708h7.75v20.696h-5.5v-16.708h-2.25zm2.25-6.056h5.5v3.988h-5.5zm9.14 0h7.75v26.752h-5.5v-22.764h-2.25zm11.41 0h7.75v26.752h-5.5v-22.764h-2.25zm19.57 5.668c3.06 0 5.08 1.514 5.67 4.154h1.23v-3.766h6.56v3.988h-2.25v12.72h2.25v3.988h-3.14c-2.22 0-3.42-1.2-3.42-3.416v-0.35h-1.23c-0.59 2.64-2.61 4.154-5.67 4.154-4.84 0-8.25-4.117-8.25-10.745s3.41-10.727 8.25-10.727zm1.62 17.207c2.79 0 4.07-1.551 4.07-4.966v-3.028c0-3.416-1.28-4.967-4.07-4.967-2.78 0-4.06 1.551-4.06 4.967v3.028c0 3.415 1.28 4.966 4.06 4.966z"/>
 </g>
 <g transform="matrix(.46732 0 0 .46732 -107.05 77.936)">
  <path id="shape-base" d="m691.78-0.41884c-10.445-25.124-31.6-52.248-48.212-60.821 13.52 26.505 21.345 53.093 24.335 72.936 0 0.039 0.015 0.136 0.047 0.4-27.175-67.733-73.254-95.045-110.88-154.51-1.9-3.007-3.805-6.022-5.661-9.2a73.716 73.716 0 0 1-2.646-4.972 43.7 43.7 0 0 1-3.593-9.506 0.626 0.626 0 0 0-0.546-0.644 0.818 0.818 0 0 0-0.451 0c-0.034 0.012-0.084 0.051-0.12 0.065-0.053 0.021-0.12 0.069-0.176 0.1 0.027-0.036 0.083-0.117 0.1-0.136-60.37 35.356-80.85 100.76-82.732 133.48a120.25 120.25 0 0 0-66.142 25.488 71.355 71.355 0 0 0-6.225-4.7 111.34 111.34 0 0 1-0.674-58.732c-24.688 11.241-43.89 29.01-57.85 44.7h-0.111c-9.527-12.067-8.855-51.873-8.312-60.184-0.114-0.515-7.107 3.63-8.023 4.255a175.07 175.07 0 0 0-23.486 20.12 210.48 210.48 0 0 0-22.442 26.913c0 0.012-7e-3 0.026-0.011 0.038 0-0.013 7e-3 -0.026 0.011-0.038a202.84 202.84 0 0 0-32.247 72.805c-0.115 0.521-0.212 1.061-0.324 1.586-0.452 2.116-2.08 12.7-2.365 15-0.022 0.177-0.032 0.347-0.053 0.524a229.07 229.07 0 0 0-3.9 33.157c0 0.41-0.025 0.816-0.025 1.227 4e-3 132.71 107.6 240.3 240.33 240.3 118.86 0 217.56-86.288 236.88-199.63 0.407-3.076 0.733-6.168 1.092-9.271 4.777-41.21-0.53-84.525-15.587-120.75zm-277 188.09c1.124 0.537 2.18 1.124 3.334 1.639 0.048 0.033 0.114 0.07 0.163 0.1a126.19 126.19 0 0 1-3.497-1.739zm55.053-144.93m198.13-30.59-0.032-0.233c0.012 0.085 0.027 0.174 0.04 0.259z" fill="url(#a)"/>
  <path id="body-outer-ring" d="m691.78-0.41884c-10.445-25.124-31.6-52.248-48.212-60.821 13.52 26.505 21.345 53.093 24.335 72.936 0-0.058 0.011 0.048 0.036 0.226 0.012 0.085 0.027 0.174 0.04 0.259 22.675 61.47 10.322 123.98-7.479 162.18-27.539 59.1-94.215 119.67-198.58 116.72-112.76-3.193-212.09-86.856-230.63-196.43-3.379-17.28 0-26.054 1.7-40.084-2.071 10.816-2.86 13.94-3.9 33.157 0 0.41-0.025 0.816-0.025 1.227 2e-3 132.71 107.6 240.29 240.33 240.29 118.86 0 217.56-86.288 236.88-199.63 0.407-3.076 0.733-6.168 1.092-9.271 4.777-41.21-0.53-84.525-15.587-120.75z" fill="url(#b)"/>
  <path id="body-outer-ring-shadow" d="m691.78-0.41884c-10.445-25.124-31.6-52.248-48.212-60.821 13.52 26.505 21.345 53.093 24.335 72.936 0-0.058 0.011 0.048 0.036 0.226 0.012 0.085 0.027 0.174 0.04 0.259 22.675 61.47 10.322 123.98-7.479 162.18-27.539 59.1-94.215 119.67-198.58 116.72-112.76-3.193-212.09-86.856-230.63-196.43-3.379-17.28 0-26.054 1.7-40.084-2.071 10.816-2.86 13.94-3.9 33.157 0 0.41-0.025 0.816-0.025 1.227 2e-3 132.71 107.6 240.29 240.33 240.29 118.86 0 217.56-86.288 236.88-199.63 0.407-3.076 0.733-6.168 1.092-9.271 4.777-41.21-0.53-84.525-15.587-120.75z" fill="url(#c)"/>
  <path id="tail-tip" d="m574.99 27.828c0.524 0.368 1 0.734 1.493 1.1a130.71 130.71 0 0 0-22.31-29.112c-74.705-74.696-19.589-161.96-10.294-166.39 0.027-0.036 0.083-0.117 0.1-0.136-60.37 35.356-80.85 100.76-82.732 133.48 2.8-0.194 5.592-0.429 8.442-0.429 45.051 0 84.289 24.77 105.3 61.487z" fill="url(#d)"/>
  <path id="globe-base" d="m469.84 42.742c-0.393 5.978-21.514 26.593-28.9 26.593-68.339 0-79.432 41.335-79.432 41.335 3.027 34.81 27.261 63.475 56.611 78.643 1.339 0.692 2.694 1.317 4.05 1.935a132.77 132.77 0 0 0 7.059 2.886 106.74 106.74 0 0 0 31.271 6.031c119.78 5.618 142.99-143.19 56.545-186.41 22.137-3.85 45.115 5.053 57.947 14.067-21.012-36.714-60.25-61.484-105.3-61.484-2.85 0-5.641 0.235-8.442 0.429a120.25 120.25 0 0 0-66.142 25.488c3.664 3.1 7.8 7.244 16.514 15.828 16.302 16.067 58.13 32.705 58.219 34.657z" fill="url(#e)"/>
  <path id="globe-shadow" d="m469.84 42.742c-0.393 5.978-21.514 26.593-28.9 26.593-68.339 0-79.432 41.335-79.432 41.335 3.027 34.81 27.261 63.475 56.611 78.643 1.339 0.692 2.694 1.317 4.05 1.935a132.77 132.77 0 0 0 7.059 2.886 106.74 106.74 0 0 0 31.271 6.031c119.78 5.618 142.99-143.19 56.545-186.41 22.137-3.85 45.115 5.053 57.947 14.067-21.012-36.714-60.25-61.484-105.3-61.484-2.85 0-5.641 0.235-8.442 0.429a120.25 120.25 0 0 0-66.142 25.488c3.664 3.1 7.8 7.244 16.514 15.828 16.302 16.067 58.13 32.705 58.219 34.657z" fill="url(#f)"/>
  <path id="ear" d="m383.9-15.736a244.04 244.04 0 0 1 4.981 3.3 111.34 111.34 0 0 1-0.674-58.732c-24.688 11.241-43.89 29.01-57.85 44.7 1.155-0.033 36.014-0.66 53.543 10.732z" fill="url(#g)"/>
  <path id="body" d="m231.29 94.638c18.543 109.58 117.88 193.24 230.63 196.43 104.36 2.954 171.04-57.62 198.58-116.72 17.8-38.2 30.154-100.7 7.479-162.18l-8e-3 -0.026-0.032-0.233c-0.025-0.178-0.04-0.284-0.036-0.226 0 0.039 0.015 0.136 0.047 0.4 8.524 55.661-19.79 109.58-64.051 146.04l-0.133 0.313c-86.245 70.223-168.77 42.368-185.48 30.966a144.11 144.11 0 0 1-3.5-1.743c-50.282-24.029-71.054-69.838-66.6-109.12-42.457 0-56.934-35.809-56.934-35.809s38.119-27.179 88.358-3.541c46.53 21.893 90.228 3.543 90.233 3.541-0.089-1.952-41.917-18.59-58.223-34.656-8.713-8.584-12.85-12.723-16.514-15.828a71.355 71.355 0 0 0-6.225-4.7 282.93 282.93 0 0 0-4.981-3.3c-17.528-11.392-52.388-10.765-53.543-10.735h-0.111c-9.527-12.067-8.855-51.873-8.312-60.184-0.114-0.515-7.107 3.63-8.023 4.255a175.07 175.07 0 0 0-23.486 20.12 210.48 210.48 0 0 0-22.442 26.919c0 0.012-7e-3 0.026-0.011 0.038 0-0.013 7e-3 -0.026 0.011-0.038a202.84 202.84 0 0 0-32.247 72.805c-0.115 0.521-8.65 37.842-4.44 57.199z" fill="url(#h)"/>
  <path id="tail-flame" d="m554.17-0.18484a130.71 130.71 0 0 1 22.31 29.112c1.323 0.994 2.559 1.985 3.608 2.952 54.482 50.2 25.936 121.2 23.807 126.26 44.261-36.46 72.575-90.383 64.051-146.04-27.175-67.732-73.254-95.044-110.88-154.51-1.9-3.007-3.805-6.022-5.661-9.2a73.716 73.716 0 0 1-2.646-4.972 43.7 43.7 0 0 1-3.593-9.506 0.626 0.626 0 0 0-0.546-0.644 0.818 0.818 0 0 0-0.451 0c-0.034 0.012-0.084 0.051-0.12 0.065-0.053 0.021-0.12 0.069-0.176 0.1-9.291 4.428-64.407 91.694 10.298 166.39z" fill="url(#i)"/>
  <path id="tail-small" d="m580.09 31.879c-1.049-0.967-2.285-1.958-3.608-2.952-0.489-0.368-0.969-0.734-1.493-1.1-12.832-9.014-35.81-17.917-57.947-14.067 86.441 43.214 63.235 192.03-56.545 186.41a106.74 106.74 0 0 1-31.271-6.031 134.51 134.51 0 0 1-7.059-2.886c-1.356-0.618-2.711-1.243-4.05-1.935 0.048 0.033 0.114 0.07 0.163 0.1 16.71 11.4 99.239 39.257 185.48-30.966l0.133-0.313c2.129-5.054 30.675-76.057-23.807-126.26z" fill="url(#j)"/>
  <path id="cheek-tufts" d="m361.51 110.67s11.093-41.335 79.432-41.335c7.388 0 28.509-20.615 28.9-26.593s-43.7 18.352-90.233-3.541c-50.239-23.638-88.358 3.541-88.358 3.541s14.477 35.809 56.934 35.809c-4.453 39.286 16.319 85.1 66.6 109.12 1.124 0.537 2.18 1.124 3.334 1.639-29.348-15.169-53.582-43.834-56.609-78.644z" fill="url(#k)"/>
  <path id="overlay-yellow" d="m691.78-0.41884c-10.445-25.124-31.6-52.248-48.212-60.821 13.52 26.505 21.345 53.093 24.335 72.936 0 0.039 0.015 0.136 0.047 0.4-27.175-67.733-73.254-95.045-110.88-154.51-1.9-3.007-3.805-6.022-5.661-9.2a73.716 73.716 0 0 1-2.646-4.972 43.7 43.7 0 0 1-3.593-9.506 0.626 0.626 0 0 0-0.546-0.644 0.818 0.818 0 0 0-0.451 0c-0.034 0.012-0.084 0.051-0.12 0.065-0.053 0.021-0.12 0.069-0.176 0.1 0.027-0.036 0.083-0.117 0.1-0.136-60.37 35.356-80.85 100.76-82.732 133.48 2.8-0.194 5.592-0.429 8.442-0.429 45.053 0 84.291 24.77 105.3 61.484-12.832-9.014-35.81-17.917-57.947-14.067 86.441 43.214 63.235 192.03-56.545 186.41a106.74 106.74 0 0 1-31.271-6.031 134.51 134.51 0 0 1-7.059-2.886c-1.356-0.618-2.711-1.243-4.05-1.935 0.048 0.033 0.114 0.07 0.163 0.1a144.11 144.11 0 0 1-3.5-1.743c1.124 0.537 2.18 1.124 3.334 1.639-29.35-15.168-53.584-43.833-56.611-78.643 0 0 11.093-41.335 79.432-41.335 7.388 0 28.509-20.615 28.9-26.593-0.089-1.952-41.917-18.59-58.223-34.656-8.713-8.584-12.85-12.723-16.514-15.828a71.355 71.355 0 0 0-6.225-4.7 111.34 111.34 0 0 1-0.674-58.732c-24.688 11.241-43.89 29.01-57.85 44.7h-0.111c-9.527-12.067-8.855-51.873-8.312-60.184-0.114-0.515-7.107 3.63-8.023 4.255a175.07 175.07 0 0 0-23.486 20.12 210.48 210.48 0 0 0-22.435 26.916c0 0.012-7e-3 0.026-0.011 0.038 0-0.013 7e-3 -0.026 0.011-0.038a202.84 202.84 0 0 0-32.247 72.805c-0.115 0.521-0.212 1.061-0.324 1.586-0.452 2.116-2.486 12.853-2.77 15.156-0.022 0.177 0.021-0.176 0 0a279.56 279.56 0 0 0-3.544 33.53c0 0.41-0.025 0.816-0.025 1.227 0 132.71 107.6 240.29 240.32 240.29 118.86 0 217.56-86.288 236.88-199.63 0.407-3.076 0.733-6.168 1.092-9.271 4.777-41.21-0.53-84.525-15.587-120.75zm-23.841 12.341c0.012 0.085 0.027 0.174 0.04 0.259l-8e-3 -0.026z" fill="url(#l)"/>
 </g>
</svg>
