<?xml version="1.0" encoding="UTF-8" standalone="no"?>
<svg
   width="691.70349"
   height="236.37392"
   viewBox="0 0 691.70349 236.37392"
   fill="none"
   version="1.1"
   id="svg8"
   sodipodi:docname="Firefox by Mozilla.svg"
   inkscape:version="1.2.2 (b0a8486541, 2022-12-01)"
   xmlns:inkscape="http://www.inkscape.org/namespaces/inkscape"
   xmlns:sodipodi="http://sodipodi.sourceforge.net/DTD/sodipodi-0.dtd"
   xmlns="http://www.w3.org/2000/svg"
   xmlns:svg="http://www.w3.org/2000/svg">
  <defs
     id="defs12">
    <linearGradient
       id="l"
       x1="406.61136"
       y1="68.311989"
       x2="104.09252"
       y2="409.86551"
       gradientTransform="matrix(0.98373973,0,0,1.016529,213.06995,-166.77184)"
       gradientUnits="userSpaceOnUse">
      <stop
         offset=".17"
         stop-color="#fff44f"
         stop-opacity=".8"
         id="stop1237" />
      <stop
         offset=".6"
         stop-color="#fff44f"
         stop-opacity="0"
         id="stop1239" />
    </linearGradient>
    <radialGradient
       id="k"
       cx="343.03802"
       cy="132.0125"
       r="528.89331"
       gradientTransform="matrix(1.0572577,0,0,0.94584319,213.06995,-166.77184)"
       fx="343.03802"
       fy="132.0125"
       gradientUnits="userSpaceOnUse">
      <stop
         offset=".09"
         stop-color="#fff44f"
         id="stop1232" />
      <stop
         offset=".63"
         stop-color="#ff980e"
         id="stop1234" />
    </radialGradient>
    <radialGradient
       id="j"
       cx="239.79736"
       cy="99.006172"
       r="461.1138"
       gradientTransform="matrix(1.008901,0,0,0.9911775,213.06995,-166.77184)"
       fx="239.79736"
       fy="99.006172"
       gradientUnits="userSpaceOnUse">
      <stop
         offset=".14"
         stop-color="#fff44f"
         id="stop1223" />
      <stop
         offset=".48"
         stop-color="#ff980e"
         id="stop1225" />
      <stop
         offset=".66"
         stop-color="#ff3647"
         id="stop1227" />
      <stop
         offset=".9"
         stop-color="#e31587"
         id="stop1229" />
    </radialGradient>
    <radialGradient
       id="i"
       cx="475.58807"
       cy="-41.588268"
       r="779.90863"
       gradientTransform="matrix(0.68818401,0,0,1.4530997,213.06995,-166.77184)"
       fx="475.58807"
       fy="-41.588268"
       gradientUnits="userSpaceOnUse">
      <stop
         offset="0"
         stop-color="#fff44f"
         id="stop1214" />
      <stop
         offset=".3"
         stop-color="#ff980e"
         id="stop1216" />
      <stop
         offset=".57"
         stop-color="#ff3647"
         id="stop1218" />
      <stop
         offset=".74"
         stop-color="#e31587"
         id="stop1220" />
    </radialGradient>
    <radialGradient
       id="h"
       cx="362.07501"
       cy="-81.709213"
       r="742.3869"
       gradientTransform="matrix(1.0914501,0,0,0.91621229,213.06995,-166.77184)"
       fx="362.07501"
       fy="-81.709213"
       gradientUnits="userSpaceOnUse">
      <stop
         offset=".11"
         stop-color="#fff44f"
         id="stop1205" />
      <stop
         offset=".46"
         stop-color="#ff980e"
         id="stop1207" />
      <stop
         offset=".72"
         stop-color="#ff3647"
         id="stop1209" />
      <stop
         offset=".9"
         stop-color="#e31587"
         id="stop1211" />
    </radialGradient>
    <radialGradient
       id="g"
       cx="240.61284"
       cy="36.806652"
       r="170.02094"
       gradientTransform="matrix(0.99822767,0,0,1.0017755,213.06995,-166.77184)"
       fx="240.61284"
       fy="36.806652"
       gradientUnits="userSpaceOnUse">
      <stop
         offset=".1"
         stop-color="#ffe226"
         id="stop1200" />
      <stop
         offset=".79"
         stop-color="#ff7139"
         id="stop1202" />
    </radialGradient>
    <radialGradient
       id="f"
       cx="271.62091"
       cy="200.9019"
       r="131.86298"
       gradientTransform="matrix(0.95519576,0,0,1.0469058,213.06995,-166.77184)"
       fx="271.62091"
       fy="200.9019"
       gradientUnits="userSpaceOnUse">
      <stop
         offset=".21"
         stop-color="#9059ff"
         stop-opacity="0"
         id="stop1195" />
      <stop
         offset=".97"
         stop-color="#6e008b"
         stop-opacity=".6"
         id="stop1197" />
    </radialGradient>
    <radialGradient
       id="e"
       cx="206.27052"
       cy="373.24011"
       r="223.4966"
       gradientTransform="matrix(0.95519576,0,0,1.0469058,213.06995,-166.77184)"
       fx="206.27052"
       fy="373.24011"
       gradientUnits="userSpaceOnUse">
      <stop
         offset=".35"
         stop-color="#3a8ee6"
         id="stop1188" />
      <stop
         offset=".67"
         stop-color="#9059ff"
         id="stop1190" />
      <stop
         offset="1"
         stop-color="#c139e6"
         id="stop1192" />
    </radialGradient>
    <radialGradient
       id="d"
       cx="395.44366"
       cy="-17.973478"
       r="210.2099"
       gradientTransform="matrix(0.76747288,0,0,1.3029776,213.06995,-166.77184)"
       fx="395.44366"
       fy="-17.973478"
       gradientUnits="userSpaceOnUse">
      <stop
         offset=".13"
         stop-color="#fff44f"
         id="stop1183" />
      <stop
         offset=".53"
         stop-color="#ff980e"
         id="stop1185" />
    </radialGradient>
    <radialGradient
       id="c"
       cx="226.56297"
       cy="290.17783"
       r="554.14581"
       gradientTransform="matrix(1.1087373,0,0,0.9019269,213.06995,-166.77184)"
       fx="226.56297"
       fy="290.17783"
       gradientUnits="userSpaceOnUse">
      <stop
         offset=".3"
         stop-color="#960e18"
         id="stop1172" />
      <stop
         offset=".35"
         stop-color="#b11927"
         stop-opacity=".74"
         id="stop1174" />
      <stop
         offset=".43"
         stop-color="#db293d"
         stop-opacity=".34"
         id="stop1176" />
      <stop
         offset=".5"
         stop-color="#f5334b"
         stop-opacity=".09"
         id="stop1178" />
      <stop
         offset=".53"
         stop-color="#ff3750"
         stop-opacity="0"
         id="stop1180" />
    </radialGradient>
    <radialGradient
       id="b"
       cx="392.80673"
       cy="61.159756"
       r="554.14581"
       gradientTransform="matrix(1.1087373,0,0,0.9019269,213.06995,-166.77184)"
       fx="392.80673"
       fy="61.159756"
       gradientUnits="userSpaceOnUse">
      <stop
         offset=".13"
         stop-color="#ffbd4f"
         id="stop1161" />
      <stop
         offset=".28"
         stop-color="#ff980e"
         id="stop1163" />
      <stop
         offset=".47"
         stop-color="#ff3750"
         id="stop1165" />
      <stop
         offset=".78"
         stop-color="#eb0878"
         id="stop1167" />
      <stop
         offset=".86"
         stop-color="#e50080"
         id="stop1169" />
    </radialGradient>
    <linearGradient
       id="a"
       x1="441.98419"
       y1="75.63131"
       x2="62.126282"
       y2="454.26938"
       gradientTransform="matrix(0.98374383,0,0,1.0165248,213.06995,-166.77184)"
       gradientUnits="userSpaceOnUse">
      <stop
         offset=".05"
         stop-color="#fff44f"
         id="stop1152" />
      <stop
         offset=".37"
         stop-color="#ff980e"
         id="stop1154" />
      <stop
         offset=".53"
         stop-color="#ff3647"
         id="stop1156" />
      <stop
         offset=".7"
         stop-color="#e31587"
         id="stop1158" />
    </linearGradient>
  </defs>
  <sodipodi:namedview
     id="namedview10"
     pagecolor="#ffffff"
     bordercolor="#666666"
     borderopacity="1.0"
     inkscape:showpageshadow="2"
     inkscape:pageopacity="0.0"
     inkscape:pagecheckerboard="0"
     inkscape:deskcolor="#d1d1d1"
     showgrid="false"
     inkscape:zoom="0.87407407"
     inkscape:cx="-479.36441"
     inkscape:cy="-332.92373"
     inkscape:window-width="3840"
     inkscape:window-height="2091"
     inkscape:window-x="0"
     inkscape:window-y="32"
     inkscape:window-maximized="1"
     inkscape:current-layer="svg8" />
  <path
     d="m 279.58947,85.070914 h 61.747 v 16.691996 h -44.032 v 22.633 h 44.032 v 16.564 h -44.032 v 36.422 h -17.715 z m 82.752,-6.449 c 1.369,-0.045 2.733,0.193 4.005,0.7 1.273,0.507 2.427,1.272 3.39,2.247 0.962,0.975 1.713,2.138 2.204,3.417 0.491,1.279 0.712,2.646 0.649,4.014 0.034,2.735 -1.02,5.372 -2.93,7.329 -1.911,1.958 -4.52,3.076 -7.255,3.11 -2.735,0.034 -5.371,-1.02 -7.329,-2.93 -1.957,-1.911 -3.076,-4.52 -3.11,-7.255 -0.052,-1.388 0.179,-2.772 0.679,-4.069 0.499,-1.296 1.258,-2.477 2.228,-3.471 0.971,-0.994 2.133,-1.78 3.417,-2.311 1.284,-0.53 2.663,-0.794 4.052,-0.775 z m -8.73,30.474996 h 17.462 v 68.285 h -17.462 z m 68.072,18.966 c -2.42,-1.909 -5.39,-2.976 -8.47,-3.036 -7.09,0 -11.14,4.552 -11.14,14.541 v 37.814 h -17.336 v -68.28 h 16.576 v 9.862 c 1.23,-3.269 3.49,-6.055 6.43,-7.946 2.94,-1.89 6.41,-2.784 9.89,-2.55 4.15,-0.01 8.2,1.223 11.64,3.54 z m 7.21,15.567 c -0.13,-4.689 0.68,-9.356 2.39,-13.723 1.72,-4.367 4.29,-8.345 7.57,-11.696 3.28,-3.351 7.21,-6.007 11.54,-7.81 4.33,-1.802 8.98,-2.715 13.67,-2.682 20.49,0 35.05,14.541 35.05,34.772 v 7.207 h -53.14 c 1.9,8.6 8.61,14.29 18.86,14.29 3.5,0.11 6.95,-0.785 9.96,-2.577 3,-1.793 5.43,-4.409 6.99,-7.538 l 14.55,8.723 c -7.2,10.623 -17.46,16.184 -32,16.184 -22.15,-0.017 -35.44,-14.8 -35.44,-35.159 z m 17.33,-7.715 h 35.94 c -1.89,-8.723 -8.98,-13.529 -18.22,-13.529 -4.06,-0.146 -8.05,1.122 -11.28,3.588 -3.23,2.466 -5.5,5.977 -6.43,9.933 z m 57.19,-26.81 h 12.28 v -3.419 c 0,-18.587996 7.84,-26.299996 25.05,-26.299996 h 6.08 v 15.049 h -4.93 c -8.1,0 -9.87,2.779 -9.87,11.242996 v 3.416 h 14.8 v 15.676 h -14.41 v 52.612 h -16.72 v -52.603 h -12.28 z m 46.71,34.139 c -0.08,-4.7 0.79,-9.367 2.56,-13.723 1.77,-4.355 4.4,-8.309 7.73,-11.626 3.33,-3.316 7.29,-5.927 11.66,-7.677 4.36,-1.749 9.03,-2.601 13.73,-2.505 9.42,0 18.46,3.743 25.12,10.407 6.67,6.663 10.41,15.7 10.41,25.124 0,9.423 -3.74,18.46 -10.41,25.124 -6.66,6.663 -15.7,10.406 -25.12,10.406 -4.72,0.172 -9.42,-0.628 -13.82,-2.351 -4.4,-1.723 -8.4,-4.331 -11.74,-7.664 -3.35,-3.332 -5.98,-7.317 -7.72,-11.707 -1.74,-4.39 -2.56,-9.091 -2.41,-13.811 z m 54.41,0 c 0.08,-2.515 -0.33,-5.021 -1.24,-7.371 -0.9,-2.349 -2.26,-4.492 -4.01,-6.302 -1.75,-1.81 -3.84,-3.25 -6.16,-4.233 -2.31,-0.983 -4.8,-1.49 -7.32,-1.49 -2.52,0 -5.01,0.507 -7.32,1.49 -2.32,0.983 -4.41,2.423 -6.16,4.233 -1.75,1.81 -3.11,3.953 -4.02,6.302 -0.9,2.35 -1.32,4.856 -1.23,7.371 -0.09,2.514 0.33,5.021 1.23,7.37 0.91,2.349 2.27,4.492 4.02,6.302 1.75,1.811 3.84,3.25 6.16,4.233 2.31,0.984 4.8,1.49 7.32,1.49 2.52,0 5.01,-0.506 7.32,-1.49 2.32,-0.983 4.41,-2.422 6.16,-4.233 1.75,-1.81 3.11,-3.953 4.01,-6.302 0.91,-2.349 1.32,-4.856 1.24,-7.37 z m 40.49,-0.759 -24.68,-33.383 h 20.49 l 14.56,20.99 14.93,-20.99 h 20.11 l -25.05,33.254 26.32,35.026 h -20.37 l -16.33,-22.255 -15.81,22.255 h -20.37 z"
     fill="#20123a"
     id="path2" />
  <path
     d="m 289.60147,231.85291 c -2.854,0 -4.744,-1.372 -5.782,-4.114 h -1.001 v 3.743 h -3.187 v -25.573 h 3.78 v 4.596 c 0,1.149 -0.111,2.335 -0.37,4.67 h 1 c 0.964,-2.595 2.78,-3.855 5.56,-3.855 4.781,0 7.672,3.743 7.672,10.266 0,6.523 -2.928,10.267 -7.672,10.267 z m -6.19,-9.155 c 0,4.188 1.557,6.078 4.93,6.078 3.372,0 4.929,-1.89 4.929,-6.078 v -2.224 c 0,-4.188 -1.557,-6.078 -4.929,-6.078 -3.373,0 -4.93,1.89 -4.93,6.078 z m 19.717,13.676 2.335,-5.522 -7.487,-19.161 h 3.892 l 5.04,13.416 h 1.001 l 5.078,-13.416 h 3.706 l -9.674,24.683 z"
     fill="#20123a"
     id="path4" />
  <path
     d="m 341.19147,204.63391 3.452,16.985 h 1.237 l 3.452,-16.985 h 10.081 v 26.752 h -5.502 v -22.062 h -1.237 l -4.8,22.062 h -5.207 l -4.8,-22.062 h -1.237 v 22.062 h -5.52 v -26.752 z m 31.588,5.668 c 6.351,0 10.044,3.803 10.044,10.745 0,6.942 -3.674,10.745 -10.044,10.745 -6.369,0 -10.043,-3.803 -10.043,-10.745 0.018,-6.96 3.692,-10.745 10.043,-10.745 z m 0,17.207 c 2.862,0 4.228,-1.551 4.228,-4.966 v -3.028 c 0,-3.416 -1.348,-4.967 -4.228,-4.967 -2.88,0 -4.228,1.551 -4.228,4.967 v 3.028 c 0.019,3.415 1.367,4.966 4.228,4.966 z m 12.296,-0.111 10.508,-12.72 h -10.36 v -3.988 h 16.91 v 3.988 l -10.5,12.72 h 10.65 v 3.988 h -17.208 z m 20.088,-16.708 h 7.75 v 20.696 h -5.5 v -16.708 h -2.25 z m 2.25,-6.056 h 5.5 v 3.988 h -5.5 z m 9.14,0 h 7.75 v 26.752 h -5.5 v -22.764 h -2.25 z m 11.41,0 h 7.75 v 26.752 h -5.5 v -22.764 h -2.25 z m 19.57,5.668 c 3.06,0 5.08,1.514 5.67,4.154 h 1.23 v -3.766 h 6.56 v 3.988 h -2.25 v 12.72 h 2.25 v 3.988 h -3.14 c -2.22,0 -3.42,-1.2 -3.42,-3.416 v -0.35 h -1.23 c -0.59,2.64 -2.61,4.154 -5.67,4.154 -4.84,0 -8.25,-4.117 -8.25,-10.745 0,-6.628 3.41,-10.727 8.25,-10.727 z m 1.62,17.207 c 2.79,0 4.07,-1.551 4.07,-4.966 v -3.028 c 0,-3.416 -1.28,-4.967 -4.07,-4.967 -2.78,0 -4.06,1.551 -4.06,4.967 v 3.028 c 0,3.415 1.28,4.966 4.06,4.966 z"
     fill="#20123a"
     id="path6" />
  <g
     id="g1760"
     transform="matrix(0.46732364,0,0,0.46732364,-107.04793,77.935814)">
    <path
       id="shape-base"
       d="m 691.78095,-0.41884 c -10.445,-25.124 -31.6,-52.248 -48.212,-60.821 13.52,26.505 21.345,53.093 24.335,72.936 0,0.039 0.015,0.136 0.047,0.4 -27.175,-67.733 -73.254,-95.045 -110.881,-154.513 -1.9,-3.007 -3.805,-6.022 -5.661,-9.2 a 73.716,73.716 0 0 1 -2.646,-4.972 43.7,43.7 0 0 1 -3.593,-9.506 0.626,0.626 0 0 0 -0.546,-0.644 0.818,0.818 0 0 0 -0.451,0 c -0.034,0.012 -0.084,0.051 -0.12,0.065 -0.053,0.021 -0.12,0.069 -0.176,0.1 0.027,-0.036 0.083,-0.117 0.1,-0.136 -60.37,35.356 -80.85,100.761 -82.732,133.484 a 120.249,120.249 0 0 0 -66.142,25.488 71.355,71.355 0 0 0 -6.225,-4.7 111.338,111.338 0 0 1 -0.674,-58.732 c -24.688,11.241 -43.89,29.01 -57.85,44.7 h -0.111 c -9.527,-12.067 -8.855,-51.873 -8.312,-60.184 -0.114,-0.515 -7.107,3.63 -8.023,4.255 a 175.073,175.073 0 0 0 -23.486,20.12 210.478,210.478 0 0 0 -22.442,26.913 c 0,0.012 -0.007,0.026 -0.011,0.038 0,-0.013 0.007,-0.026 0.011,-0.038 a 202.838,202.838 0 0 0 -32.247,72.805 c -0.115,0.521 -0.212,1.061 -0.324,1.586 -0.452,2.116 -2.08,12.7 -2.365,15 -0.022,0.177 -0.032,0.347 -0.053,0.524 a 229.066,229.066 0 0 0 -3.9,33.157 c 0,0.41 -0.025,0.816 -0.025,1.227 0.004,132.713 107.604,240.295 240.328,240.295 118.865,0 217.56,-86.288 236.882,-199.63 0.407,-3.076 0.733,-6.168 1.092,-9.271 4.777,-41.21 -0.53,-84.525 -15.587,-120.746 z m -276.995,188.094 c 1.124,0.537 2.18,1.124 3.334,1.639 0.048,0.033 0.114,0.07 0.163,0.1 a 126.191,126.191 0 0 1 -3.497,-1.739 z m 55.053,-144.93 z m 198.131,-30.59 -0.032,-0.233 c 0.012,0.085 0.027,0.174 0.04,0.259 z"
       fill="url(#a)"
       style="fill:url(#a)" />
    <path
       id="body-outer-ring"
       d="m 691.78095,-0.41884 c -10.445,-25.124 -31.6,-52.248 -48.212,-60.821 13.52,26.505 21.345,53.093 24.335,72.936 0,-0.058 0.011,0.048 0.036,0.226 0.012,0.085 0.027,0.174 0.04,0.259 22.675,61.47 10.322,123.978 -7.479,162.175 -27.539,59.1 -94.215,119.67 -198.576,116.716 -112.755,-3.193 -212.089,-86.856 -230.632,-196.434 -3.379,-17.28 0,-26.054 1.7,-40.084 -2.071,10.816 -2.86,13.94 -3.9,33.157 0,0.41 -0.025,0.816 -0.025,1.227 0.002,132.708 107.602,240.29 240.326,240.29 118.865,0 217.56,-86.288 236.882,-199.63 0.407,-3.076 0.733,-6.168 1.092,-9.271 4.777,-41.21 -0.53,-84.525 -15.587,-120.746 z"
       fill="url(#b)"
       style="fill:url(#b)" />
    <path
       id="body-outer-ring-shadow"
       d="m 691.78095,-0.41884 c -10.445,-25.124 -31.6,-52.248 -48.212,-60.821 13.52,26.505 21.345,53.093 24.335,72.936 0,-0.058 0.011,0.048 0.036,0.226 0.012,0.085 0.027,0.174 0.04,0.259 22.675,61.47 10.322,123.978 -7.479,162.175 -27.539,59.1 -94.215,119.67 -198.576,116.716 -112.755,-3.193 -212.089,-86.856 -230.632,-196.434 -3.379,-17.28 0,-26.054 1.7,-40.084 -2.071,10.816 -2.86,13.94 -3.9,33.157 0,0.41 -0.025,0.816 -0.025,1.227 0.002,132.708 107.602,240.29 240.326,240.29 118.865,0 217.56,-86.288 236.882,-199.63 0.407,-3.076 0.733,-6.168 1.092,-9.271 4.777,-41.21 -0.53,-84.525 -15.587,-120.746 z"
       fill="url(#c)"
       style="fill:url(#c)" />
    <path
       id="tail-tip"
       d="m 574.99195,27.82816 c 0.524,0.368 1,0.734 1.493,1.1 a 130.706,130.706 0 0 0 -22.31,-29.112 c -74.705,-74.696 -19.589,-161.962 -10.294,-166.394 0.027,-0.036 0.083,-0.117 0.1,-0.136 -60.37,35.356 -80.85,100.761 -82.732,133.484 2.8,-0.194 5.592,-0.429 8.442,-0.429 45.051,0 84.289,24.77 105.301,61.487 z"
       fill="url(#d)"
       style="fill:url(#d)" />
    <path
       id="globe-base"
       d="m 469.84195,42.74216 c -0.393,5.978 -21.514,26.593 -28.9,26.593 -68.339,0 -79.432,41.335 -79.432,41.335 3.027,34.81 27.261,63.475 56.611,78.643 1.339,0.692 2.694,1.317 4.05,1.935 a 132.768,132.768 0 0 0 7.059,2.886 106.743,106.743 0 0 0 31.271,6.031 c 119.78,5.618 142.986,-143.194 56.545,-186.408 22.137,-3.85 45.115,5.053 57.947,14.067 -21.012,-36.714 -60.25,-61.484 -105.3,-61.484 -2.85,0 -5.641,0.235 -8.442,0.429 a 120.249,120.249 0 0 0 -66.142,25.488 c 3.664,3.1 7.8,7.244 16.514,15.828 16.302,16.067 58.13,32.705 58.219,34.657 z"
       fill="url(#e)"
       style="fill:url(#e)" />
    <path
       id="globe-shadow"
       d="m 469.84195,42.74216 c -0.393,5.978 -21.514,26.593 -28.9,26.593 -68.339,0 -79.432,41.335 -79.432,41.335 3.027,34.81 27.261,63.475 56.611,78.643 1.339,0.692 2.694,1.317 4.05,1.935 a 132.768,132.768 0 0 0 7.059,2.886 106.743,106.743 0 0 0 31.271,6.031 c 119.78,5.618 142.986,-143.194 56.545,-186.408 22.137,-3.85 45.115,5.053 57.947,14.067 -21.012,-36.714 -60.25,-61.484 -105.3,-61.484 -2.85,0 -5.641,0.235 -8.442,0.429 a 120.249,120.249 0 0 0 -66.142,25.488 c 3.664,3.1 7.8,7.244 16.514,15.828 16.302,16.067 58.13,32.705 58.219,34.657 z"
       fill="url(#f)"
       style="fill:url(#f)" />
    <path
       id="ear"
       d="m 383.89895,-15.73584 a 244.042,244.042 0 0 1 4.981,3.3 111.338,111.338 0 0 1 -0.674,-58.732 c -24.688,11.241 -43.89,29.01 -57.85,44.7 1.155,-0.033 36.014,-0.66 53.543,10.732 z"
       fill="url(#g)"
       style="fill:url(#g)" />
    <path
       id="body"
       d="m 231.29295,94.63816 c 18.543,109.578 117.877,193.241 230.632,196.434 104.361,2.954 171.037,-57.62 198.576,-116.716 17.8,-38.2 30.154,-100.7 7.479,-162.175 l -0.008,-0.026 -0.032,-0.233 c -0.025,-0.178 -0.04,-0.284 -0.036,-0.226 0,0.039 0.015,0.136 0.047,0.4 8.524,55.661 -19.79,109.584 -64.051,146.044 l -0.133,0.313 c -86.245,70.223 -168.774,42.368 -185.484,30.966 a 144.108,144.108 0 0 1 -3.5,-1.743 c -50.282,-24.029 -71.054,-69.838 -66.6,-109.124 -42.457,0 -56.934,-35.809 -56.934,-35.809 0,0 38.119,-27.179 88.358,-3.541 46.53,21.893 90.228,3.543 90.233,3.541 -0.089,-1.952 -41.917,-18.59 -58.223,-34.656 -8.713,-8.584 -12.85,-12.723 -16.514,-15.828 a 71.355,71.355 0 0 0 -6.225,-4.7 282.929,282.929 0 0 0 -4.981,-3.3 c -17.528,-11.392 -52.388,-10.765 -53.543,-10.735 h -0.111 c -9.527,-12.067 -8.855,-51.873 -8.312,-60.184 -0.114,-0.515 -7.107,3.63 -8.023,4.255 a 175.073,175.073 0 0 0 -23.486,20.12 210.478,210.478 0 0 0 -22.442,26.919 c 0,0.012 -0.007,0.026 -0.011,0.038 0,-0.013 0.007,-0.026 0.011,-0.038 a 202.838,202.838 0 0 0 -32.247,72.805 c -0.115,0.521 -8.65,37.842 -4.44,57.199 z"
       fill="url(#h)"
       style="fill:url(#h)" />
    <path
       id="tail-flame"
       d="m 554.17495,-0.18484 a 130.706,130.706 0 0 1 22.31,29.112 c 1.323,0.994 2.559,1.985 3.608,2.952 54.482,50.2 25.936,121.2 23.807,126.26 44.261,-36.46 72.575,-90.383 64.051,-146.044 -27.175,-67.732 -73.254,-95.044 -110.881,-154.512 -1.9,-3.007 -3.805,-6.022 -5.661,-9.2 a 73.716,73.716 0 0 1 -2.646,-4.972 43.7,43.7 0 0 1 -3.593,-9.506 0.626,0.626 0 0 0 -0.546,-0.644 0.818,0.818 0 0 0 -0.451,0 c -0.034,0.012 -0.084,0.051 -0.12,0.065 -0.053,0.021 -0.12,0.069 -0.176,0.1 -9.291,4.428 -64.407,91.694 10.298,166.389 z"
       fill="url(#i)"
       style="fill:url(#i)" />
    <path
       id="tail-small"
       d="m 580.09295,31.87916 c -1.049,-0.967 -2.285,-1.958 -3.608,-2.952 -0.489,-0.368 -0.969,-0.734 -1.493,-1.1 -12.832,-9.014 -35.81,-17.917 -57.947,-14.067 86.441,43.214 63.235,192.026 -56.545,186.408 a 106.743,106.743 0 0 1 -31.271,-6.031 134.51,134.51 0 0 1 -7.059,-2.886 c -1.356,-0.618 -2.711,-1.243 -4.05,-1.935 0.048,0.033 0.114,0.07 0.163,0.1 16.71,11.4 99.239,39.257 185.484,-30.966 l 0.133,-0.313 c 2.129,-5.054 30.675,-76.057 -23.807,-126.258 z"
       fill="url(#j)"
       style="fill:url(#j)" />
    <path
       id="cheek-tufts"
       d="m 361.50895,110.67116 c 0,0 11.093,-41.335 79.432,-41.335 7.388,0 28.509,-20.615 28.9,-26.593 0.391,-5.978 -43.7,18.352 -90.233,-3.541 -50.239,-23.638 -88.358,3.541 -88.358,3.541 0,0 14.477,35.809 56.934,35.809 -4.453,39.286 16.319,85.1 66.6,109.124 1.124,0.537 2.18,1.124 3.334,1.639 -29.348,-15.169 -53.582,-43.834 -56.609,-78.644 z"
       fill="url(#k)"
       style="fill:url(#k)" />
    <path
       id="overlay-yellow"
       d="m 691.78095,-0.41884 c -10.445,-25.124 -31.6,-52.248 -48.212,-60.821 13.52,26.505 21.345,53.093 24.335,72.936 0,0.039 0.015,0.136 0.047,0.4 -27.175,-67.733 -73.254,-95.045 -110.881,-154.513 -1.9,-3.007 -3.805,-6.022 -5.661,-9.2 a 73.716,73.716 0 0 1 -2.646,-4.972 43.7,43.7 0 0 1 -3.593,-9.506 0.626,0.626 0 0 0 -0.546,-0.644 0.818,0.818 0 0 0 -0.451,0 c -0.034,0.012 -0.084,0.051 -0.12,0.065 -0.053,0.021 -0.12,0.069 -0.176,0.1 0.027,-0.036 0.083,-0.117 0.1,-0.136 -60.37,35.356 -80.85,100.761 -82.732,133.484 2.8,-0.194 5.592,-0.429 8.442,-0.429 45.053,0 84.291,24.77 105.3,61.484 -12.832,-9.014 -35.81,-17.917 -57.947,-14.067 86.441,43.214 63.235,192.026 -56.545,186.408 a 106.743,106.743 0 0 1 -31.271,-6.031 134.51,134.51 0 0 1 -7.059,-2.886 c -1.356,-0.618 -2.711,-1.243 -4.05,-1.935 0.048,0.033 0.114,0.07 0.163,0.1 a 144.108,144.108 0 0 1 -3.5,-1.743 c 1.124,0.537 2.18,1.124 3.334,1.639 -29.35,-15.168 -53.584,-43.833 -56.611,-78.643 0,0 11.093,-41.335 79.432,-41.335 7.388,0 28.509,-20.615 28.9,-26.593 -0.089,-1.952 -41.917,-18.59 -58.223,-34.656 -8.713,-8.584 -12.85,-12.723 -16.514,-15.828 a 71.355,71.355 0 0 0 -6.225,-4.7 111.338,111.338 0 0 1 -0.674,-58.732 c -24.688,11.241 -43.89,29.01 -57.85,44.7 h -0.111 c -9.527,-12.067 -8.855,-51.873 -8.312,-60.184 -0.114,-0.515 -7.107,3.63 -8.023,4.255 a 175.073,175.073 0 0 0 -23.486,20.12 210.478,210.478 0 0 0 -22.435,26.916 c 0,0.012 -0.007,0.026 -0.011,0.038 0,-0.013 0.007,-0.026 0.011,-0.038 a 202.838,202.838 0 0 0 -32.247,72.805 c -0.115,0.521 -0.212,1.061 -0.324,1.586 -0.452,2.116 -2.486,12.853 -2.77,15.156 -0.022,0.177 0.021,-0.176 0,0 a 279.565,279.565 0 0 0 -3.544,33.53 c 0,0.41 -0.025,0.816 -0.025,1.227 0,132.708 107.6,240.29 240.324,240.29 118.865,0 217.56,-86.288 236.882,-199.63 0.407,-3.076 0.733,-6.168 1.092,-9.271 4.777,-41.21 -0.53,-84.525 -15.587,-120.746 z m -23.841,12.341 c 0.012,0.085 0.027,0.174 0.04,0.259 l -0.008,-0.026 z"
       fill="url(#l)"
       style="fill:url(#l)" />
  </g>
</svg>
